HIERARCHY
ROOT Hips
{
  OFFSET 13.6774 106.653 -34.4427
  CHANNELS 6 Xposition Yposition Zposition Zrotation Xrotation Yrotation
  JOINT ToSpine
  {
    OFFSET -2.69724 7.43032 -0.144315
    CHANNELS 3 Zrotation Xrotation Yrotation
    JOINT Spine
    {
      OFFSET -0.0310711 10.7595 1.96963
      CHANNELS 3 Zrotation Xrotation Yrotation
      JOINT Spine1
      {
        OFFSET 19.9056 3.91189 0.764692
        CHANNELS 3 Zrotation Xrotation Yrotation
        JOINT Neck
        {
          OFFSET 25.9749 7.03908 -0.130764
          CHANNELS 3 Zrotation Xrotation Yrotation
          JOINT Head
          {
            OFFSET 9.52751 0.295786 -0.907742
            CHANNELS 3 Zrotation Xrotation Yrotation
            End Site
            {
              OFFSET 16.4037 0.713936 2.7358
            }
          }
        }
        JOINT LeftShoulder
        {
          OFFSET 17.7449 4.33886 11.7777
          CHANNELS 3 Zrotation Xrotation Yrotation
          JOINT LeftArm
          {
            OFFSET 0.911315 1.27913 9.80584
            CHANNELS 3 Zrotation Xrotation Yrotation
            JOINT LeftForeArm
            {
              OFFSET 28.6126 1.18197 -3.53199
              CHANNELS 3 Zrotation Xrotation Yrotation
              JOINT LeftHand
              {
                OFFSET 27.5088 0.0218783 0.327423
                CHANNELS 3 Zrotation Xrotation Yrotation
                End Site
                {
                  OFFSET 18.6038 -0.000155887 0.382096
                }
              }
            }
          }
        }
        JOINT RightShoulder
        {
          OFFSET 17.1009 2.89543 -12.2328
          CHANNELS 3 Zrotation Xrotation Yrotation
          JOINT RightArm
          {
            OFFSET 1.4228 0.178766 -10.211
            CHANNELS 3 Zrotation Xrotation Yrotation
            JOINT RightForeArm
            {
              OFFSET 28.733 1.87905 2.64907
              CHANNELS 3 Zrotation Xrotation Yrotation
              JOINT RightHand
              {
                OFFSET 27.4588 0.290562 -0.101845
                CHANNELS 3 Zrotation Xrotation Yrotation
                End Site
                {
                  OFFSET 17.8396 -0.255518 -0.000602873
                }
              }
            }
          }
        }
      }
    }
  }
  JOINT LeftUpLeg
  {
    OFFSET -5.61296 -2.22332 -10.2353
    CHANNELS 3 Zrotation Xrotation Yrotation
    JOINT LeftLeg
    {
      OFFSET 2.56703 -44.7417 -7.93097
      CHANNELS 3 Zrotation Xrotation Yrotation
      JOINT LeftFoot
      {
        OFFSET 3.16933 -46.5642 -3.96578
        CHANNELS 3 Zrotation Xrotation Yrotation
        JOINT LeftToeBase
        {
          OFFSET 0.346054 -6.02161 12.8035
          CHANNELS 3 Zrotation Xrotation Yrotation
          End Site
          {
            OFFSET 0.134235 -1.35082 5.13018
          }
        }
      }
    }
  }
  JOINT RightUpLeg
  {
    OFFSET -5.7928 -1.72406 10.6446
    CHANNELS 3 Zrotation Xrotation Yrotation
    JOINT RightLeg
    {
      OFFSET -2.57161 -44.7178 -7.85259
      CHANNELS 3 Zrotation Xrotation Yrotation
      JOINT RightFoot
      {
        OFFSET -3.10148 -46.5936 -4.03391
        CHANNELS 3 Zrotation Xrotation Yrotation
        JOINT RightToeBase
        {
          OFFSET -0.0828122 -6.13587 12.8035
          CHANNELS 3 Zrotation Xrotation Yrotation
          End Site
          {
            OFFSET -0.131328 -1.35082 5.13018
          }
        }
      }
    }
  }
}
MOTION
Frames: 10
Frame Time: 0.03333333333333333
0.0000 93.1000 0.0000 0.3537 -75.5563 -93.9883 -70.8787 -0.0111 87.9629 96.9688 71.2745 -10.5983 -0.9136 19.9680 4.5386 -156.0466 21.5381 -177.5663 -153.6586 60.5247 -178.0929 -1.3631 -16.6501 -36.6498 -79.8359 33.2907 -77.7035 5.7255 17.3845 -25.7636 0.5010 0.2965 -0.3766 -2.1026 6.3548 45.0775 -79.7479 -29.4464 83.7137 9.6598 -16.9199 32.6198 0.0838 0.4175 -0.2514 -41.6500 19.1362 85.8824 -4.0283 51.7534 -6.6962 -3.3054 -12.2147 -1.4488 4.6702 -11.5947 5.3719 -41.4464 -19.8577 109.2214 3.2882 50.4053 4.4926 -0.9769 -11.5653 1.4058 3.0290 -26.4316 -13.9127 
0.0000 93.1000 0.0000 -4.2568 -75.4908 -98.4342 -70.8591 0.0415 87.9334 101.3246 70.2822 -12.8755 -1.8053 20.1498 3.7247 -156.1864 21.1855 -178.3642 -153.9265 59.8215 -174.6936 -1.6566 -15.7870 -36.6998 -84.0134 32.5611 -74.5320 6.7402 16.5005 -26.3905 0.2956 0.6818 -0.3832 -2.1126 6.4802 45.2234 -77.7597 -29.1320 85.3143 10.0557 -17.2462 33.1990 -0.6792 0.8015 -0.3140 -44.2755 20.4122 85.0677 -3.6662 48.0387 -8.4482 -6.0047 -9.5771 -1.2078 4.1632 -11.7376 7.8436 -37.8387 -19.6831 106.3935 3.7679 56.0937 6.2850 -1.7368 -15.3422 1.7005 1.0686 -23.8298 -14.6131 
0.0000 93.1000 0.0000 -8.8487 -75.2485 -105.3190 -70.8629 -0.0056 87.9278 103.9439 70.1282 -14.9079 -1.9661 20.6351 3.4713 -155.7872 20.9160 -177.8478 -153.9848 59.3485 -176.0073 -1.3933 -15.8550 -36.7467 -86.8638 33.2175 -72.0732 7.2586 15.7148 -28.6834 -0.0178 0.4713 0.0487 -2.1535 6.3863 45.2557 -75.4832 -28.6069 88.0316 9.8521 -16.1414 33.2967 -0.4646 0.6049 -0.1250 -46.7325 22.2027 84.9461 -3.9658 45.1055 -7.3824 -6.5793 -5.1506 -0.5211 3.5115 -10.6652 7.4621 -35.8732 -17.6271 104.7199 5.0930 60.3839 6.7317 -2.4528 -18.7152 1.6775 1.6507 -20.7876 -14.8461 
0.0000 93.1000 0.0000 -10.7581 -74.6946 -105.8551 -70.8958 -0.0684 87.9647 102.2464 69.9417 -14.8425 -1.7282 20.1272 3.5313 -155.2194 20.3372 -179.6555 -153.0817 59.0886 -176.0185 -0.9588 -15.0971 -36.0890 -88.8921 33.5289 -70.1750 8.2047 16.3957 -29.8683 0.2610 0.1606 0.2849 -2.1372 6.1978 45.3563 -72.9904 -28.8098 90.0736 8.4967 -15.4340 33.5754 0.0088 0.2727 -0.1680 -47.2419 22.5026 83.0841 -2.5637 41.9767 -8.9338 -5.3155 1.5603 0.1297 2.9982 -8.9153 8.2114 -34.2369 -16.0416 105.6016 6.7640 62.9515 5.8746 -3.2030 -21.0678 1.4821 2.4181 -19.4515 -16.5695 
0.0000 93.1000 0.0000 -8.0365 -74.3200 -104.9773 -70.9127 -0.1383 88.0190 100.4335 70.2029 -13.0907 -1.2344 20.0748 2.9733 -155.0341 20.0947 -180.4119 -151.1407 58.7027 -175.7959 -0.5184 -14.8969 -36.0695 -90.2746 33.2884 -68.8194 9.5799 17.1950 -31.3337 -0.0211 -0.1876 0.4835 -2.1107 5.9690 45.2794 -72.1178 -28.4496 91.6630 8.0282 -14.2544 33.6205 0.2751 -0.1359 0.1082 -46.2420 22.3704 81.2866 -2.8725 40.2291 -5.5382 -4.8148 7.2911 1.0412 -0.1001 -4.2282 7.2441 -33.5006 -13.6676 105.8127 7.2555 63.5916 3.4532 -3.0209 -22.0886 1.0546 1.8959 -19.4361 -14.3124 
0.0000 93.1000 0.0000 -7.3211 -72.4839 -103.4732 -70.9150 -0.0684 88.0169 98.7441 70.0552 -10.9826 -1.2086 19.6761 2.6236 -154.7511 19.7845 -179.3985 -150.3005 59.0029 -177.4912 -0.9069 -15.2385 -35.2555 -90.9298 32.1379 -68.6439 9.7329 16.5394 -32.8005 -0.1636 0.2022 0.0841 -2.0320 5.7777 44.1842 -72.0261 -29.4523 91.5557 7.8343 -13.9837 34.0909 -0.1886 0.3076 0.0899 -45.6059 21.4447 80.2881 -2.7262 37.8589 -3.8465 -6.5998 7.6577 1.0693 -2.3263 0.9634 5.5897 -32.2921 -11.8714 105.2487 8.3846 64.4170 3.3046 -3.2536 -23.0759 1.4978 2.4115 -17.9438 -14.9765 
0.0000 93.1000 0.0000 -7.0875 -71.8407 -105.9144 -70.9224 -0.0584 88.0176 100.3113 70.0429 -12.0602 -1.7936 20.1059 1.9256 -155.8283 19.8290 -177.9427 -152.6361 59.0533 -174.3641 -0.9708 -15.3908 -36.1020 -91.8364 31.8810 -69.1692 10.8120 18.0098 -33.2450 -0.0252 0.2344 -0.0974 -2.0189 5.7964 44.1270 -71.1443 -28.7599 91.6594 7.9221 -13.2377 34.9851 -0.3247 0.3535 0.1362 -45.8748 20.3943 81.1570 -3.1175 36.2012 -4.2242 -4.6700 3.9094 0.3131 -2.5259 0.1838 3.1459 -31.8664 -10.0343 105.2811 7.7740 64.5024 3.0608 -2.6089 -23.7290 1.4168 2.4196 -14.9099 -15.3392 
0.0000 93.1000 0.0000 -6.8715 -71.3799 -105.3326 -70.9163 -0.1425 88.0129 100.1332 70.0153 -12.8603 -1.8749 20.2850 2.0120 -155.9816 19.7694 -177.4036 -151.7425 59.0584 -176.4308 -0.6526 -15.6035 -35.8297 -92.3482 31.9537 -69.5793 11.8032 18.1642 -35.3251 -0.2177 -0.1845 0.3182 -2.1042 6.0597 44.3854 -70.3843 -28.9697 92.0481 8.0299 -12.4971 34.6261 -0.0992 -0.1147 0.4757 -45.0042 18.3948 83.1785 -2.7065 36.4084 -5.2929 -5.2479 0.7343 0.4990 -1.7154 -1.2528 5.2484 -31.7861 -8.2566 105.5986 6.9606 63.0035 2.9007 -2.3495 -24.1171 1.3339 2.3531 -11.8640 -15.0883 
0.0000 93.1000 0.0000 -5.5868 -70.4726 -105.7385 -70.9221 -0.2067 88.0269 99.4937 69.9155 -11.4824 -2.1693 20.2045 1.8664 -156.9037 19.6370 -177.3596 -150.8732 58.5079 -175.2141 -0.3322 -16.0169 -35.6588 -92.0027 31.9163 -69.6095 12.2333 16.9066 -35.9154 -0.0520 -0.5058 0.7187 -2.1722 6.2936 44.4822 -69.1902 -26.8695 92.2338 8.0935 -12.3236 33.6936 0.0811 -0.4817 0.4105 -44.0761 16.2492 86.0553 -2.1059 36.6553 -4.1292 -3.0004 -1.6631 0.2058 -0.6485 -4.3686 3.9483 -31.4364 -7.2457 104.3964 6.0190 61.0364 3.3042 -2.5604 -23.8545 1.4044 2.2081 -11.5030 -12.3079 
0.0000 93.1000 0.0000 -5.6535 -69.7323 -106.5401 -70.9389 -0.1101 87.9989 100.2518 69.6381 -11.7606 -2.6326 20.1720 1.9858 -157.1496 19.7731 -178.3806 -151.7001 58.7223 -176.8385 -0.8642 -16.1870 -35.9380 -92.1243 32.3460 -70.5510 11.7125 15.9055 -37.2944 -0.1396 -0.0214 0.2731 -2.1224 6.5955 44.5575 -68.4902 -25.6101 92.5231 7.1416 -12.5075 32.8930 -0.3248 0.0716 -0.0419 -42.8477 13.9176 88.6842 -2.2304 36.3872 -4.3117 -3.0484 -4.3063 -0.5714 0.8991 -5.2948 5.0474 -31.8282 -6.2602 104.1161 4.9632 58.5085 4.1256 -2.0869 -23.0139 1.6048 2.4260 -8.8220 -13.7809 
